<svg width="40" height="40" viewBox="0 0 40 40" fill="none" xmlns="http://www.w3.org/2000/svg">
<path d="M8.33325 21.6667C8.33325 26.2617 12.0716 30 16.6666 30H31.6666V26.6667H16.6666C13.9091 26.6667 11.6666 24.4242 11.6666 21.6667V20H31.6666L36.6666 5H3.33325V8.33333H8.33325V21.6667Z" fill="black"/>
<path d="M14.9999 36.6667C15.9204 36.6667 16.6666 35.9205 16.6666 35C16.6666 34.0795 15.9204 33.3333 14.9999 33.3333C14.0794 33.3333 13.3333 34.0795 13.3333 35C13.3333 35.9205 14.0794 36.6667 14.9999 36.6667Z" fill="black"/>
<path d="M24.9999 36.6667C25.9204 36.6667 26.6666 35.9205 26.6666 35C26.6666 34.0795 25.9204 33.3333 24.9999 33.3333C24.0794 33.3333 23.3333 34.0795 23.3333 35C23.3333 35.9205 24.0794 36.6667 24.9999 36.6667Z" fill="black"/>
</svg>
