<svg width="640" height="433" viewBox="0 0 640 433" fill="none" xmlns="http://www.w3.org/2000/svg">
<g clip-path="url(#clip0_88_627)">
<path d="M383.697 32.2461L87.574 140.107C83.9275 141.436 83.9835 145.798 87.6742 147.908L225.484 226.694C230.508 229.566 236.624 230.218 241.588 228.41L521.164 126.576C532.104 122.591 531.936 109.504 520.864 103.174L399.801 33.9619C394.778 31.09 388.661 30.4382 383.697 32.2461Z" fill="#BFBFBF"/>
<path d="M84.5104 141.223L382.09 32.8319L381.868 169.605C381.86 174.382 378.774 178.441 373.763 180.266L76.1839 288.658L76.4054 151.885C76.4132 147.108 79.499 143.049 84.5104 141.223Z" fill="#004392"/>
<path d="M256.058 400.868L552.181 293.006C555.827 291.678 555.771 287.316 552.081 285.206L414.271 206.419C409.247 203.547 403.13 202.895 398.167 204.703L118.59 306.538C107.651 310.522 107.819 323.61 118.891 329.94L239.954 399.152C244.977 402.024 251.094 402.675 256.058 400.868Z" fill="#BFBFBF"/>
<path d="M555.244 291.89L257.665 400.282L257.887 263.508C257.895 258.732 260.981 254.672 265.992 252.847L563.571 144.456L563.349 281.229C563.342 286.006 560.256 290.065 555.244 291.89Z" fill="#00A3FF"/>
</g>
<defs>
<clipPath id="clip0_88_627">
<rect width="639.755" height="431.35" fill="white" transform="translate(0 0.881859)"/>
</clipPath>
</defs>
</svg>
