<svg width="728" height="435" viewBox="0 0 728 435" fill="none" xmlns="http://www.w3.org/2000/svg">
<g clip-path="url(#clip0_3_2)">
<rect width="728" height="435" fill="white"/>
<g clip-path="url(#clip1_3_2)">
<path d="M40.128 416.623C35.008 416.623 30.24 415.791 25.824 414.127C21.472 412.399 17.664 409.999 14.4 406.927C11.2 403.791 8.704 400.111 6.912 395.887C5.12 391.663 4.224 387.055 4.224 382.063C4.224 377.071 5.12 372.463 6.912 368.239C8.704 364.015 11.232 360.367 14.496 357.295C17.76 354.159 21.568 351.759 25.92 350.095C30.272 348.367 35.04 347.503 40.224 347.503C45.728 347.503 50.752 348.463 55.296 350.383C59.84 352.239 63.68 355.023 66.816 358.735L58.752 366.319C56.32 363.695 53.6 361.743 50.592 360.463C47.584 359.119 44.32 358.447 40.8 358.447C37.28 358.447 34.048 359.023 31.104 360.175C28.224 361.327 25.696 362.959 23.52 365.071C21.408 367.183 19.744 369.679 18.528 372.559C17.376 375.439 16.8 378.607 16.8 382.063C16.8 385.519 17.376 388.687 18.528 391.567C19.744 394.447 21.408 396.943 23.52 399.055C25.696 401.167 28.224 402.799 31.104 403.951C34.048 405.103 37.28 405.679 40.8 405.679C44.32 405.679 47.584 405.039 50.592 403.759C53.6 402.415 56.32 400.399 58.752 397.711L66.816 405.391C63.68 409.039 59.84 411.823 55.296 413.743C50.752 415.663 45.696 416.623 40.128 416.623ZM108.737 415.663V405.295L108.065 403.087V384.943C108.065 381.423 107.009 378.703 104.897 376.783C102.785 374.799 99.5853 373.807 95.2973 373.807C92.4173 373.807 89.5693 374.255 86.7533 375.151C84.0013 376.047 81.6653 377.295 79.7453 378.895L75.0413 370.159C77.7933 368.047 81.0573 366.479 84.8333 365.455C88.6733 364.367 92.6413 363.823 96.7373 363.823C104.161 363.823 109.889 365.615 113.921 369.199C118.017 372.719 120.065 378.191 120.065 385.615V415.663H108.737ZM92.6093 416.335C88.7693 416.335 85.4093 415.695 82.5293 414.415C79.6493 413.071 77.4093 411.247 75.8093 408.943C74.2733 406.575 73.5053 403.919 73.5053 400.975C73.5053 398.095 74.1773 395.503 75.5213 393.199C76.9293 390.895 79.2013 389.071 82.3373 387.727C85.4733 386.383 89.6333 385.711 94.8173 385.711H109.697V393.679H95.6813C91.5853 393.679 88.8333 394.351 87.4253 395.695C86.0173 396.975 85.3133 398.575 85.3133 400.495C85.3133 402.671 86.1773 404.399 87.9053 405.679C89.6333 406.959 92.0333 407.599 95.1053 407.599C98.0493 407.599 100.673 406.927 102.977 405.583C105.345 404.239 107.041 402.255 108.065 399.631L110.081 406.831C108.929 409.839 106.849 412.175 103.841 413.839C100.897 415.503 97.1533 416.335 92.6093 416.335ZM163.882 416.335C159.722 416.335 155.914 415.375 152.458 413.455C149.066 411.535 146.346 408.655 144.298 404.815C142.314 400.911 141.322 395.983 141.322 390.031C141.322 384.015 142.282 379.087 144.202 375.247C146.186 371.407 148.874 368.559 152.266 366.703C155.658 364.783 159.53 363.823 163.882 363.823C168.938 363.823 173.386 364.911 177.226 367.087C181.13 369.263 184.202 372.303 186.442 376.207C188.746 380.111 189.898 384.719 189.898 390.031C189.898 395.343 188.746 399.983 186.442 403.951C184.202 407.855 181.13 410.895 177.226 413.071C173.386 415.247 168.938 416.335 163.882 416.335ZM135.466 434.287V364.399H146.89V376.495L146.506 390.127L147.466 403.759V434.287H135.466ZM162.538 406.063C165.418 406.063 167.978 405.423 170.218 404.143C172.522 402.863 174.346 401.007 175.69 398.575C177.034 396.143 177.706 393.295 177.706 390.031C177.706 386.703 177.034 383.855 175.69 381.487C174.346 379.055 172.522 377.199 170.218 375.919C167.978 374.639 165.418 373.999 162.538 373.999C159.658 373.999 157.066 374.639 154.762 375.919C152.458 377.199 150.634 379.055 149.29 381.487C147.946 383.855 147.274 386.703 147.274 390.031C147.274 393.295 147.946 396.143 149.29 398.575C150.634 401.007 152.458 402.863 154.762 404.143C157.066 405.423 159.658 406.063 162.538 406.063ZM201.278 415.663V364.399H213.278V415.663H201.278ZM207.326 355.951C205.086 355.951 203.23 355.247 201.758 353.839C200.35 352.431 199.646 350.735 199.646 348.751C199.646 346.703 200.35 345.007 201.758 343.663C203.23 342.255 205.086 341.551 207.326 341.551C209.566 341.551 211.39 342.223 212.798 343.567C214.27 344.847 215.006 346.479 215.006 348.463C215.006 350.575 214.302 352.367 212.894 353.839C211.486 355.247 209.63 355.951 207.326 355.951ZM248.324 416.335C242.692 416.335 238.34 414.895 235.268 412.015C232.196 409.071 230.66 404.751 230.66 399.055V353.071H242.66V398.767C242.66 401.199 243.268 403.087 244.484 404.431C245.764 405.775 247.524 406.447 249.764 406.447C252.452 406.447 254.692 405.743 256.484 404.335L259.844 412.879C258.436 414.031 256.708 414.895 254.66 415.471C252.612 416.047 250.5 416.335 248.324 416.335ZM222.212 374.383V364.783H256.388V374.383H222.212ZM301.3 415.663V405.295L300.628 403.087V384.943C300.628 381.423 299.572 378.703 297.46 376.783C295.348 374.799 292.148 373.807 287.86 373.807C284.98 373.807 282.132 374.255 279.316 375.151C276.564 376.047 274.228 377.295 272.308 378.895L267.604 370.159C270.356 368.047 273.62 366.479 277.396 365.455C281.236 364.367 285.204 363.823 289.3 363.823C296.724 363.823 302.452 365.615 306.484 369.199C310.58 372.719 312.628 378.191 312.628 385.615V415.663H301.3ZM285.172 416.335C281.332 416.335 277.972 415.695 275.092 414.415C272.212 413.071 269.972 411.247 268.372 408.943C266.836 406.575 266.068 403.919 266.068 400.975C266.068 398.095 266.74 395.503 268.084 393.199C269.492 390.895 271.764 389.071 274.9 387.727C278.036 386.383 282.196 385.711 287.38 385.711H302.26V393.679H288.244C284.148 393.679 281.396 394.351 279.988 395.695C278.58 396.975 277.876 398.575 277.876 400.495C277.876 402.671 278.74 404.399 280.468 405.679C282.196 406.959 284.596 407.599 287.668 407.599C290.612 407.599 293.236 406.927 295.54 405.583C297.908 404.239 299.604 402.255 300.628 399.631L302.644 406.831C301.492 409.839 299.412 412.175 296.404 413.839C293.46 415.503 289.716 416.335 285.172 416.335ZM328.028 415.663V344.431H340.028V415.663H328.028Z" fill="#004392"/>
<path d="M356.93 415.663V348.463H384.578C390.53 348.463 395.618 349.423 399.842 351.343C404.13 353.263 407.426 356.015 409.73 359.599C412.034 363.183 413.186 367.439 413.186 372.367C413.186 377.295 412.034 381.551 409.73 385.135C407.426 388.719 404.13 391.471 399.842 393.391C395.618 395.311 390.53 396.271 384.578 396.271H363.842L369.41 390.415V415.663H356.93ZM369.41 391.759L363.842 385.711H384.002C389.506 385.711 393.634 384.559 396.386 382.255C399.202 379.887 400.61 376.591 400.61 372.367C400.61 368.079 399.202 364.783 396.386 362.479C393.634 360.175 389.506 359.023 384.002 359.023H363.842L369.41 352.879V391.759ZM425.435 415.663V344.431H437.435V415.663H425.435ZM484.769 415.663V405.295L484.097 403.087V384.943C484.097 381.423 483.041 378.703 480.929 376.783C478.817 374.799 475.617 373.807 471.329 373.807C468.449 373.807 465.601 374.255 462.785 375.151C460.033 376.047 457.697 377.295 455.777 378.895L451.073 370.159C453.825 368.047 457.089 366.479 460.865 365.455C464.705 364.367 468.673 363.823 472.769 363.823C480.193 363.823 485.921 365.615 489.953 369.199C494.049 372.719 496.097 378.191 496.097 385.615V415.663H484.769ZM468.641 416.335C464.801 416.335 461.441 415.695 458.561 414.415C455.681 413.071 453.441 411.247 451.841 408.943C450.305 406.575 449.537 403.919 449.537 400.975C449.537 398.095 450.209 395.503 451.553 393.199C452.961 390.895 455.233 389.071 458.369 387.727C461.505 386.383 465.665 385.711 470.849 385.711H485.729V393.679H471.713C467.617 393.679 464.865 394.351 463.457 395.695C462.049 396.975 461.345 398.575 461.345 400.495C461.345 402.671 462.209 404.399 463.937 405.679C465.665 406.959 468.065 407.599 471.137 407.599C474.081 407.599 476.705 406.927 479.009 405.583C481.377 404.239 483.073 402.255 484.097 399.631L486.113 406.831C484.961 409.839 482.881 412.175 479.873 413.839C476.929 415.503 473.185 416.335 468.641 416.335ZM527.337 416.335C523.049 416.335 518.921 415.791 514.953 414.703C511.049 413.551 507.945 412.175 505.641 410.575L510.249 401.455C512.553 402.927 515.305 404.143 518.505 405.103C521.705 406.063 524.905 406.543 528.105 406.543C531.881 406.543 534.601 406.031 536.265 405.007C537.993 403.983 538.857 402.607 538.857 400.879C538.857 399.471 538.281 398.415 537.129 397.711C535.977 396.943 534.473 396.367 532.617 395.983C530.761 395.599 528.681 395.247 526.377 394.927C524.137 394.607 521.865 394.191 519.561 393.679C517.321 393.103 515.273 392.303 513.417 391.279C511.561 390.191 510.057 388.751 508.905 386.959C507.753 385.167 507.177 382.799 507.177 379.855C507.177 376.591 508.105 373.775 509.961 371.407C511.817 368.975 514.409 367.119 517.737 365.839C521.129 364.495 525.129 363.823 529.737 363.823C533.193 363.823 536.681 364.207 540.201 364.975C543.721 365.743 546.633 366.831 548.937 368.239L544.329 377.359C541.897 375.887 539.433 374.895 536.937 374.383C534.505 373.807 532.073 373.519 529.641 373.519C525.993 373.519 523.273 374.063 521.481 375.151C519.753 376.239 518.889 377.615 518.889 379.279C518.889 380.815 519.465 381.967 520.617 382.735C521.769 383.503 523.273 384.111 525.129 384.559C526.985 385.007 529.033 385.391 531.273 385.711C533.577 385.967 535.849 386.383 538.089 386.959C540.329 387.535 542.377 388.335 544.233 389.359C546.153 390.319 547.689 391.695 548.841 393.487C549.993 395.279 550.569 397.615 550.569 400.495C550.569 403.695 549.609 406.479 547.689 408.847C545.833 411.215 543.177 413.071 539.721 414.415C536.265 415.695 532.137 416.335 527.337 416.335ZM580.199 416.335C574.567 416.335 570.215 414.895 567.143 412.015C564.071 409.071 562.535 404.751 562.535 399.055V353.071H574.535V398.767C574.535 401.199 575.143 403.087 576.359 404.431C577.639 405.775 579.399 406.447 581.639 406.447C584.327 406.447 586.567 405.743 588.359 404.335L591.719 412.879C590.311 414.031 588.583 414.895 586.535 415.471C584.487 416.047 582.375 416.335 580.199 416.335ZM554.087 374.383V364.783H588.263V374.383H554.087Z" fill="#00A3FF"/>
<path d="M613.879 399.823L613.207 385.039L648.439 348.463H662.455L633.175 379.567L626.263 387.151L613.879 399.823ZM602.743 415.663V348.463H615.223V415.663H602.743ZM649.591 415.663L623.863 385.039L632.119 375.919L664.183 415.663H649.591ZM667.592 415.663V407.311L710.984 354.319L712.424 359.023H668.264V348.463H723.656V356.815L680.264 409.807L678.728 405.103H724.904V415.663H667.592Z" fill="#BFBFBF"/>
<path d="M410.003 24.195L192.593 103.385C188.947 104.713 189.003 109.076 192.694 111.186L291.63 167.748C296.653 170.62 302.77 171.272 307.733 169.464L508.596 96.3005C519.536 92.3158 519.368 79.2282 508.296 72.8984L426.107 25.9107C421.083 23.0388 414.967 22.3871 410.003 24.195Z" fill="#BFBFBF"/>
<path d="M190.256 104.237L410.817 23.8986L410.654 124.266C410.646 129.043 407.56 133.102 402.549 134.928L181.988 215.266L182.151 114.898C182.159 110.121 185.244 106.062 190.256 104.237Z" fill="#004392"/>
<path d="M318.553 298.468L535.963 219.277C539.609 217.949 539.553 213.587 535.863 211.477L436.926 154.915C431.903 152.043 425.786 151.391 420.823 153.199L219.96 226.362C209.02 230.347 209.188 243.434 220.26 249.764L302.449 296.752C307.473 299.624 313.59 300.275 318.553 298.468Z" fill="#BFBFBF"/>
<path d="M538.3 218.426L317.74 298.764L317.902 198.396C317.91 193.619 320.996 189.56 326.007 187.735L546.568 107.397L546.405 207.765C546.398 212.541 543.312 216.6 538.3 218.426Z" fill="#00A3FF"/>
</g>
</g>
<defs>
<clipPath id="clip0_3_2">
<rect width="728" height="435" fill="white"/>
</clipPath>
<clipPath id="clip1_3_2">
<rect width="728" height="435" fill="white"/>
</clipPath>
</defs>
</svg>
